# xmcd
#
# Track frame offsets: 
#        150
#        13240
#        29497
#        47642
#        64672
#        84372
#        100605
#        120830
#        140274
#        159216
#        175562
#        196232
#        214697
#
# Disc length: 3095 seconds
#
# Revision: 0
# Processed by: cddbd v1.5.2PL0 Copyright (c) Steve Scherf et al.
# Submitted via: ExactAudioCopy v0.99pb4
#
DISCID=980c150d
DTITLE=Asher Roth - Asleep In The Bread Aisle
DYEAR=2009
DGENRE=Hip-Hop
TTITLE0=Lark On My Go-Kart
TTITLE1=Blunt Cruisin'
TTITLE2=I Love College
TTITLE3=La Di Da
TTITLE4=Be By Myself (Featuring Cee-Lo)
TTITLE5=She Don't Wanna Man
TTITLE6=Sour Patch Kids
TTITLE7=As I Em (Featuring Chester French)
TTITLE8=Lion's Roar (Featuring New Kingdom and Busta Rhymes)
TTITLE9=Bad Day (Featuring Jazze Pha)
TTITLE10=His Dream
TTITLE11=Fallin'
TTITLE12=Y.O.U.
EXTD=
EXTT0=
EXTT1=
EXTT2=
EXTT3=
EXTT4=
EXTT5=
EXTT6=
EXTT7=
EXTT8=
EXTT9=
EXTT10=
EXTT11=
EXTT12=
PLAYORDER=
